<?xml version="1.0" standalone="no"?>
<!DOCTYPE svg PUBLIC "-//W3C//DTD SVG 20010904//EN"
 "http://www.w3.org/TR/2001/REC-SVG-20010904/DTD/svg10.dtd">
<svg version="1.0" xmlns="http://www.w3.org/2000/svg"
 width="217.000000pt" height="232.000000pt" viewBox="0 0 217.000000 232.000000"
 preserveAspectRatio="xMidYMid meet">

<g transform="translate(0.000000,232.000000) scale(0.100000,-0.100000)"
fill="#000000" stroke="none">
<path d="M975 2199 c-424 -53 -770 -358 -882 -777 -23 -85 -26 -117 -26 -257
0 -140 3 -172 26 -257 159 -597 778 -926 1359 -723 315 110 553 364 654 700
26 84 28 102 28 280 0 178 -1 196 -27 280 -88 292 -280 522 -542 651 -125 61
-220 89 -350 104 -102 11 -141 11 -240 -1z m258 -289 c-28 -228 7 -333 202
-598 179 -245 222 -372 180 -537 -27 -105 -72 -184 -149 -260 -110 -109 -217
-154 -367 -155 -230 0 -431 164 -505 415 -26 87 -23 255 5 360 59 220 288 563
535 804 59 57 109 102 111 100 2 -2 -4 -60 -12 -129z"/>
<path d="M1388 1162 c2 -22 -5 -62 -18 -97 -56 -150 -61 -168 -55 -197 8 -37
48 -63 96 -63 47 0 76 25 90 78 20 74 -36 243 -98 299 -18 16 -18 16 -15 -20z"/>
</g>
</svg>
